<?xml version="1.0" encoding="UTF-8"?><svg id="Layer_1" xmlns="http://www.w3.org/2000/svg" viewBox="0 0 398.96 364.23"><defs><style>.cls-1{fill:#ef4136;}</style></defs><path class="cls-1" d="M272.33,200.57c-6.34-7.3-13.53-13.63-21.39-18.78-3.07-2.01-6.87-1.67-9.71.76-11.25,9.68-25.21,15.41-40.31,15.41s-29.06-5.73-40.32-15.41c-2.83-2.43-6.63-2.78-9.7-.76-30.45,19.99-50.97,57.68-50.97,100.89v.26c0,14.02,9.88,25.39,22.08,25.39h157.8c12.2,0,22.08-11.38,22.08-25.39v-.26c0-32.07-11.3-61.1-29.58-82.11Z"/><path class="cls-1" d="M170.81,172.94c8.6,5.8,18.95,9.18,30.11,9.18s21.5-3.38,30.1-9.18c14.36-9.69,23.81-26.12,23.81-44.75,0-29.78-24.14-53.92-53.92-53.92s-53.92,24.14-53.92,53.92c0,18.63,9.45,35.05,23.81,44.75Z"/><path class="cls-1" d="M281.94,100.24c0-25.16,15.37-40.53,40.53-40.53-25.16,0-40.53-15.37-40.53-40.53,0,25.16-15.37,40.53-40.53,40.53,25.16,0,40.53,15.37,40.53,40.53Z"/><path class="cls-1" d="M294.87,342.26H104.1c-31.4,0-56.95-25.55-56.95-56.95V94.53c0-31.4,25.55-56.95,56.95-56.95h141.32c4.42,0,8,3.58,8,8s-3.58,8-8,8H104.1c-22.58,0-40.95,18.37-40.95,40.95v190.77c0,22.58,18.37,40.95,40.95,40.95h190.77c22.58,0,40.95-18.37,40.95-40.95V94.53c0-9.81-3.57-19.33-10.05-26.78-2.9-3.34-2.54-8.39.79-11.29,3.33-2.9,8.39-2.54,11.29.79,9.01,10.37,13.97,23.61,13.97,37.28v190.77c0,31.4-25.55,56.95-56.95,56.95Z"/></svg>